<mxfile host="app.diagrams.net" modified="2024-01-07T07:15:22.757Z" agent="Mozilla/5.0 (Windows NT 10.0; Win64; x64) AppleWebKit/537.36 (KHTML, like Gecko) Chrome/120.0.0.0 Safari/537.36" etag="_2-GUM9LUjSeAY8KHlZU" version="22.1.17" type="device">
  <diagram name="Halaman-1" id="cC2SkzaSPcBs0G0KAVAy">
    <mxGraphModel dx="1032" dy="482" grid="1" gridSize="10" guides="1" tooltips="1" connect="1" arrows="1" fold="1" page="1" pageScale="1" pageWidth="827" pageHeight="1169" math="0" shadow="0">
      <root>
        <mxCell id="0" />
        <mxCell id="1" parent="0" />
        <mxCell id="fPYjLD5q3VQSErX6WcES-1" value="" style="shape=umlLifeline;perimeter=lifelinePerimeter;whiteSpace=wrap;html=1;container=1;dropTarget=0;collapsible=0;recursiveResize=0;outlineConnect=0;portConstraint=eastwest;newEdgeStyle={&quot;curved&quot;:0,&quot;rounded&quot;:0};participant=umlActor;" parent="1" vertex="1">
          <mxGeometry x="70" y="40" width="20" height="300" as="geometry" />
        </mxCell>
        <mxCell id="fPYjLD5q3VQSErX6WcES-4" value="" style="html=1;points=[[0,0,0,0,5],[0,1,0,0,-5],[1,0,0,0,5],[1,1,0,0,-5]];perimeter=orthogonalPerimeter;outlineConnect=0;targetShapes=umlLifeline;portConstraint=eastwest;newEdgeStyle={&quot;curved&quot;:0,&quot;rounded&quot;:0};" parent="fPYjLD5q3VQSErX6WcES-1" vertex="1">
          <mxGeometry x="5" y="70" width="10" height="80" as="geometry" />
        </mxCell>
        <mxCell id="fPYjLD5q3VQSErX6WcES-3" value="&amp;nbsp; &amp;nbsp; Quiz_Menu" style="shape=umlLifeline;perimeter=lifelinePerimeter;whiteSpace=wrap;html=1;container=1;dropTarget=0;collapsible=0;recursiveResize=0;outlineConnect=0;portConstraint=eastwest;newEdgeStyle={&quot;curved&quot;:0,&quot;rounded&quot;:0};participant=umlBoundary;" parent="1" vertex="1">
          <mxGeometry x="170" y="40" width="90" height="310" as="geometry" />
        </mxCell>
        <mxCell id="fPYjLD5q3VQSErX6WcES-5" value="" style="html=1;points=[[0,0,0,0,5],[0,1,0,0,-5],[1,0,0,0,5],[1,1,0,0,-5]];perimeter=orthogonalPerimeter;outlineConnect=0;targetShapes=umlLifeline;portConstraint=eastwest;newEdgeStyle={&quot;curved&quot;:0,&quot;rounded&quot;:0};" parent="fPYjLD5q3VQSErX6WcES-3" vertex="1">
          <mxGeometry x="40" y="80" width="10" height="80" as="geometry" />
        </mxCell>
        <mxCell id="fPYjLD5q3VQSErX6WcES-6" style="edgeStyle=orthogonalEdgeStyle;rounded=0;orthogonalLoop=1;jettySize=auto;html=1;curved=0;exitX=1;exitY=0;exitDx=0;exitDy=5;exitPerimeter=0;entryX=0;entryY=0;entryDx=0;entryDy=5;entryPerimeter=0;" parent="1" source="fPYjLD5q3VQSErX6WcES-4" target="fPYjLD5q3VQSErX6WcES-5" edge="1">
          <mxGeometry relative="1" as="geometry">
            <Array as="points">
              <mxPoint x="85" y="125" />
            </Array>
          </mxGeometry>
        </mxCell>
        <mxCell id="fPYjLD5q3VQSErX6WcES-8" value="Lobby_Control" style="shape=umlLifeline;perimeter=lifelinePerimeter;whiteSpace=wrap;html=1;container=1;dropTarget=0;collapsible=0;recursiveResize=0;outlineConnect=0;portConstraint=eastwest;newEdgeStyle={&quot;curved&quot;:0,&quot;rounded&quot;:0};participant=umlControl;" parent="1" vertex="1">
          <mxGeometry x="290" y="40" width="100" height="300" as="geometry" />
        </mxCell>
        <mxCell id="fPYjLD5q3VQSErX6WcES-10" value="" style="html=1;points=[[0,0,0,0,5],[0,1,0,0,-5],[1,0,0,0,5],[1,1,0,0,-5]];perimeter=orthogonalPerimeter;outlineConnect=0;targetShapes=umlLifeline;portConstraint=eastwest;newEdgeStyle={&quot;curved&quot;:0,&quot;rounded&quot;:0};" parent="fPYjLD5q3VQSErX6WcES-8" vertex="1">
          <mxGeometry x="45" y="90" width="10" height="80" as="geometry" />
        </mxCell>
        <mxCell id="-cLXaDpOXH1hC6zm49w6-15" value="" style="html=1;points=[[0,0,0,0,5],[0,1,0,0,-5],[1,0,0,0,5],[1,1,0,0,-5]];perimeter=orthogonalPerimeter;outlineConnect=0;targetShapes=umlLifeline;portConstraint=eastwest;newEdgeStyle={&quot;curved&quot;:0,&quot;rounded&quot;:0};" vertex="1" parent="fPYjLD5q3VQSErX6WcES-8">
          <mxGeometry x="45" y="230" width="10" height="60" as="geometry" />
        </mxCell>
        <mxCell id="-cLXaDpOXH1hC6zm49w6-16" value="IsExist()" style="html=1;align=left;spacingLeft=2;endArrow=block;rounded=0;edgeStyle=orthogonalEdgeStyle;curved=0;rounded=0;" edge="1" target="-cLXaDpOXH1hC6zm49w6-15" parent="fPYjLD5q3VQSErX6WcES-8">
          <mxGeometry relative="1" as="geometry">
            <mxPoint x="55" y="230" as="sourcePoint" />
            <Array as="points">
              <mxPoint x="55" y="240" />
              <mxPoint x="85" y="240" />
              <mxPoint x="85" y="260" />
            </Array>
          </mxGeometry>
        </mxCell>
        <mxCell id="fPYjLD5q3VQSErX6WcES-9" value="&amp;nbsp; Lobby" style="shape=umlLifeline;perimeter=lifelinePerimeter;whiteSpace=wrap;html=1;container=1;dropTarget=0;collapsible=0;recursiveResize=0;outlineConnect=0;portConstraint=eastwest;newEdgeStyle={&quot;curved&quot;:0,&quot;rounded&quot;:0};participant=umlBoundary;" parent="1" vertex="1">
          <mxGeometry x="520" y="35" width="60" height="300" as="geometry" />
        </mxCell>
        <mxCell id="fPYjLD5q3VQSErX6WcES-11" value="" style="html=1;points=[[0,0,0,0,5],[0,1,0,0,-5],[1,0,0,0,5],[1,1,0,0,-5]];perimeter=orthogonalPerimeter;outlineConnect=0;targetShapes=umlLifeline;portConstraint=eastwest;newEdgeStyle={&quot;curved&quot;:0,&quot;rounded&quot;:0};" parent="fPYjLD5q3VQSErX6WcES-9" vertex="1">
          <mxGeometry x="25" y="215" width="10" height="80" as="geometry" />
        </mxCell>
        <mxCell id="fPYjLD5q3VQSErX6WcES-12" style="edgeStyle=orthogonalEdgeStyle;rounded=0;orthogonalLoop=1;jettySize=auto;html=1;curved=0;exitX=1;exitY=0;exitDx=0;exitDy=5;exitPerimeter=0;entryX=0;entryY=0;entryDx=0;entryDy=5;entryPerimeter=0;" parent="1" source="fPYjLD5q3VQSErX6WcES-5" target="fPYjLD5q3VQSErX6WcES-10" edge="1">
          <mxGeometry relative="1" as="geometry">
            <Array as="points">
              <mxPoint x="220" y="135" />
            </Array>
          </mxGeometry>
        </mxCell>
        <mxCell id="fPYjLD5q3VQSErX6WcES-15" value="Quiz_Controll" style="shape=umlLifeline;perimeter=lifelinePerimeter;whiteSpace=wrap;html=1;container=1;dropTarget=0;collapsible=0;recursiveResize=0;outlineConnect=0;portConstraint=eastwest;newEdgeStyle={&quot;curved&quot;:0,&quot;rounded&quot;:0};participant=umlControl;" parent="1" vertex="1">
          <mxGeometry x="630" y="35" width="90" height="300" as="geometry" />
        </mxCell>
        <mxCell id="-cLXaDpOXH1hC6zm49w6-18" value="" style="html=1;points=[[0,0,0,0,5],[0,1,0,0,-5],[1,0,0,0,5],[1,1,0,0,-5]];perimeter=orthogonalPerimeter;outlineConnect=0;targetShapes=umlLifeline;portConstraint=eastwest;newEdgeStyle={&quot;curved&quot;:0,&quot;rounded&quot;:0};" vertex="1" parent="fPYjLD5q3VQSErX6WcES-15">
          <mxGeometry x="-85" y="62.5" width="10" height="80" as="geometry" />
        </mxCell>
        <mxCell id="fPYjLD5q3VQSErX6WcES-16" value="" style="html=1;points=[[0,0,0,0,5],[0,1,0,0,-5],[1,0,0,0,5],[1,1,0,0,-5]];perimeter=orthogonalPerimeter;outlineConnect=0;targetShapes=umlLifeline;portConstraint=eastwest;newEdgeStyle={&quot;curved&quot;:0,&quot;rounded&quot;:0};" parent="fPYjLD5q3VQSErX6WcES-15" vertex="1">
          <mxGeometry x="40" y="62.5" width="10" height="80" as="geometry" />
        </mxCell>
        <mxCell id="-cLXaDpOXH1hC6zm49w6-19" style="edgeStyle=orthogonalEdgeStyle;rounded=0;orthogonalLoop=1;jettySize=auto;html=1;curved=0;exitX=1;exitY=0;exitDx=0;exitDy=5;exitPerimeter=0;entryX=0;entryY=0;entryDx=0;entryDy=5;entryPerimeter=0;" edge="1" parent="fPYjLD5q3VQSErX6WcES-15" source="-cLXaDpOXH1hC6zm49w6-18" target="fPYjLD5q3VQSErX6WcES-16">
          <mxGeometry relative="1" as="geometry" />
        </mxCell>
        <mxCell id="-cLXaDpOXH1hC6zm49w6-22" value="" style="html=1;points=[[0,0,0,0,5],[0,1,0,0,-5],[1,0,0,0,5],[1,1,0,0,-5]];perimeter=orthogonalPerimeter;outlineConnect=0;targetShapes=umlLifeline;portConstraint=eastwest;newEdgeStyle={&quot;curved&quot;:0,&quot;rounded&quot;:0};" vertex="1" parent="fPYjLD5q3VQSErX6WcES-15">
          <mxGeometry x="40" y="225" width="10" height="60" as="geometry" />
        </mxCell>
        <mxCell id="-cLXaDpOXH1hC6zm49w6-23" value="IsExist()" style="html=1;align=left;spacingLeft=2;endArrow=block;rounded=0;edgeStyle=orthogonalEdgeStyle;curved=0;rounded=0;" edge="1" target="-cLXaDpOXH1hC6zm49w6-22" parent="fPYjLD5q3VQSErX6WcES-15">
          <mxGeometry relative="1" as="geometry">
            <mxPoint x="50" y="225" as="sourcePoint" />
            <Array as="points">
              <mxPoint x="50" y="235" />
              <mxPoint x="80" y="235" />
              <mxPoint x="80" y="255" />
            </Array>
          </mxGeometry>
        </mxCell>
        <mxCell id="fPYjLD5q3VQSErX6WcES-18" value="&amp;nbsp; &amp;nbsp;Quiz" style="shape=umlLifeline;perimeter=lifelinePerimeter;whiteSpace=wrap;html=1;container=1;dropTarget=0;collapsible=0;recursiveResize=0;outlineConnect=0;portConstraint=eastwest;newEdgeStyle={&quot;curved&quot;:0,&quot;rounded&quot;:0};participant=umlBoundary;" parent="1" vertex="1">
          <mxGeometry x="870" y="37.5" width="50" height="300" as="geometry" />
        </mxCell>
        <mxCell id="fPYjLD5q3VQSErX6WcES-19" value="" style="html=1;points=[[0,0,0,0,5],[0,1,0,0,-5],[1,0,0,0,5],[1,1,0,0,-5]];perimeter=orthogonalPerimeter;outlineConnect=0;targetShapes=umlLifeline;portConstraint=eastwest;newEdgeStyle={&quot;curved&quot;:0,&quot;rounded&quot;:0};" parent="fPYjLD5q3VQSErX6WcES-18" vertex="1">
          <mxGeometry x="20" y="217.5" width="10" height="65" as="geometry" />
        </mxCell>
        <mxCell id="fPYjLD5q3VQSErX6WcES-21" value="Mencari Kategori&lt;br&gt;" style="text;html=1;strokeColor=none;fillColor=none;align=center;verticalAlign=middle;whiteSpace=wrap;rounded=0;" parent="1" vertex="1">
          <mxGeometry x="110" y="90" width="60" height="30" as="geometry" />
        </mxCell>
        <mxCell id="fPYjLD5q3VQSErX6WcES-23" value="FindingLobby()" style="text;html=1;strokeColor=none;fillColor=none;align=center;verticalAlign=middle;whiteSpace=wrap;rounded=0;" parent="1" vertex="1">
          <mxGeometry x="250" y="100" width="60" height="30" as="geometry" />
        </mxCell>
        <mxCell id="fPYjLD5q3VQSErX6WcES-24" value="AddPlayerToLobby()" style="text;html=1;strokeColor=none;fillColor=none;align=center;verticalAlign=middle;whiteSpace=wrap;rounded=0;" parent="1" vertex="1">
          <mxGeometry x="414" y="300" width="60" height="30" as="geometry" />
        </mxCell>
        <mxCell id="fPYjLD5q3VQSErX6WcES-25" value="WaitingPlayer()" style="text;html=1;strokeColor=none;fillColor=none;align=center;verticalAlign=middle;whiteSpace=wrap;rounded=0;" parent="1" vertex="1">
          <mxGeometry x="590" y="80" width="60" height="30" as="geometry" />
        </mxCell>
        <mxCell id="fPYjLD5q3VQSErX6WcES-26" value="GetInGameQuiz()" style="text;html=1;strokeColor=none;fillColor=none;align=center;verticalAlign=middle;whiteSpace=wrap;rounded=0;" parent="1" vertex="1">
          <mxGeometry x="750" y="290" width="60" height="30" as="geometry" />
        </mxCell>
        <mxCell id="-cLXaDpOXH1hC6zm49w6-4" value="Quiz_db" style="shape=umlLifeline;perimeter=lifelinePerimeter;whiteSpace=wrap;html=1;container=1;dropTarget=0;collapsible=0;recursiveResize=0;outlineConnect=0;portConstraint=eastwest;newEdgeStyle={&quot;curved&quot;:0,&quot;rounded&quot;:0};participant=umlEntity;" vertex="1" parent="1">
          <mxGeometry x="770" y="42.5" width="60" height="300" as="geometry" />
        </mxCell>
        <mxCell id="-cLXaDpOXH1hC6zm49w6-6" value="" style="html=1;points=[[0,0,0,0,5],[0,1,0,0,-5],[1,0,0,0,5],[1,1,0,0,-5]];perimeter=orthogonalPerimeter;outlineConnect=0;targetShapes=umlLifeline;portConstraint=eastwest;newEdgeStyle={&quot;curved&quot;:0,&quot;rounded&quot;:0};" vertex="1" parent="-cLXaDpOXH1hC6zm49w6-4">
          <mxGeometry x="25" y="55" width="10" height="80" as="geometry" />
        </mxCell>
        <mxCell id="-cLXaDpOXH1hC6zm49w6-7" value="Lobby_Db" style="shape=umlLifeline;perimeter=lifelinePerimeter;whiteSpace=wrap;html=1;container=1;dropTarget=0;collapsible=0;recursiveResize=0;outlineConnect=0;portConstraint=eastwest;newEdgeStyle={&quot;curved&quot;:0,&quot;rounded&quot;:0};participant=umlEntity;" vertex="1" parent="1">
          <mxGeometry x="430" y="40" width="70" height="300" as="geometry" />
        </mxCell>
        <mxCell id="-cLXaDpOXH1hC6zm49w6-8" value="" style="html=1;points=[[0,0,0,0,5],[0,1,0,0,-5],[1,0,0,0,5],[1,1,0,0,-5]];perimeter=orthogonalPerimeter;outlineConnect=0;targetShapes=umlLifeline;portConstraint=eastwest;newEdgeStyle={&quot;curved&quot;:0,&quot;rounded&quot;:0};" vertex="1" parent="-cLXaDpOXH1hC6zm49w6-7">
          <mxGeometry x="30" y="55" width="10" height="80" as="geometry" />
        </mxCell>
        <mxCell id="-cLXaDpOXH1hC6zm49w6-10" style="edgeStyle=orthogonalEdgeStyle;rounded=0;orthogonalLoop=1;jettySize=auto;html=1;curved=0;exitX=1;exitY=0;exitDx=0;exitDy=5;exitPerimeter=0;" edge="1" parent="1" source="fPYjLD5q3VQSErX6WcES-10" target="-cLXaDpOXH1hC6zm49w6-7">
          <mxGeometry relative="1" as="geometry">
            <Array as="points">
              <mxPoint x="345" y="160" />
            </Array>
          </mxGeometry>
        </mxCell>
        <mxCell id="-cLXaDpOXH1hC6zm49w6-12" value="GetLobby()" style="text;html=1;strokeColor=none;fillColor=none;align=center;verticalAlign=middle;whiteSpace=wrap;rounded=0;" vertex="1" parent="1">
          <mxGeometry x="380" y="130" width="60" height="30" as="geometry" />
        </mxCell>
        <mxCell id="-cLXaDpOXH1hC6zm49w6-17" style="edgeStyle=orthogonalEdgeStyle;rounded=0;orthogonalLoop=1;jettySize=auto;html=1;curved=0;exitX=1;exitY=1;exitDx=0;exitDy=-5;exitPerimeter=0;entryX=0;entryY=1;entryDx=0;entryDy=-5;entryPerimeter=0;" edge="1" parent="1" source="-cLXaDpOXH1hC6zm49w6-15" target="fPYjLD5q3VQSErX6WcES-11">
          <mxGeometry relative="1" as="geometry" />
        </mxCell>
        <mxCell id="-cLXaDpOXH1hC6zm49w6-24" style="edgeStyle=orthogonalEdgeStyle;rounded=0;orthogonalLoop=1;jettySize=auto;html=1;curved=0;exitX=1;exitY=1;exitDx=0;exitDy=-5;exitPerimeter=0;entryX=0;entryY=1;entryDx=0;entryDy=-5;entryPerimeter=0;" edge="1" parent="1" source="-cLXaDpOXH1hC6zm49w6-22" target="fPYjLD5q3VQSErX6WcES-19">
          <mxGeometry relative="1" as="geometry" />
        </mxCell>
        <mxCell id="-cLXaDpOXH1hC6zm49w6-25" style="edgeStyle=orthogonalEdgeStyle;rounded=0;orthogonalLoop=1;jettySize=auto;html=1;curved=0;exitX=1;exitY=0;exitDx=0;exitDy=5;exitPerimeter=0;entryX=0;entryY=0;entryDx=0;entryDy=5;entryPerimeter=0;" edge="1" parent="1" source="fPYjLD5q3VQSErX6WcES-16" target="-cLXaDpOXH1hC6zm49w6-6">
          <mxGeometry relative="1" as="geometry" />
        </mxCell>
        <mxCell id="-cLXaDpOXH1hC6zm49w6-26" value="GetQuiz()" style="text;html=1;strokeColor=none;fillColor=none;align=center;verticalAlign=middle;whiteSpace=wrap;rounded=0;" vertex="1" parent="1">
          <mxGeometry x="710" y="80" width="60" height="30" as="geometry" />
        </mxCell>
      </root>
    </mxGraphModel>
  </diagram>
</mxfile>
